<svg width="24" height="25" viewBox="0 0 24 25" fill="none" xmlns="http://www.w3.org/2000/svg">
<path d="M17.34 6.38812C17.1027 6.38812 16.8707 6.45827 16.6733 6.58969C16.476 6.72112 16.3222 6.90792 16.2313 7.12647C16.1405 7.34503 16.1168 7.58552 16.1631 7.81753C16.2094 8.04955 16.3236 8.26266 16.4915 8.42994C16.6593 8.59721 16.8731 8.71113 17.1059 8.75728C17.3387 8.80343 17.5799 8.77974 17.7992 8.68921C18.0185 8.59869 18.2059 8.44538 18.3378 8.24869C18.4696 8.052 18.54 7.82075 18.54 7.58419C18.54 7.26697 18.4136 6.96275 18.1885 6.73844C17.9635 6.51413 17.6583 6.38812 17.34 6.38812ZM21.94 8.80019C21.9206 7.97321 21.7652 7.155 21.48 6.37815C21.2257 5.71347 20.83 5.11159 20.32 4.61395C19.8248 4.10306 19.2196 3.71109 18.55 3.46772C17.7727 3.17484 16.9508 3.01641 16.12 2.99926C15.06 2.93945 14.72 2.93945 12 2.93945C9.28 2.93945 8.94 2.93945 7.88 2.99926C7.04915 3.01641 6.22734 3.17484 5.45 3.46772C4.78168 3.71356 4.17693 4.10518 3.68 4.61395C3.16743 5.10751 2.77418 5.71079 2.53 6.37815C2.23616 7.15295 2.07721 7.97207 2.06 8.80019C2 9.85672 2 10.1956 2 12.9067C2 15.6178 2 15.9567 2.06 17.0132C2.07721 17.8413 2.23616 18.6604 2.53 19.4352C2.77418 20.1026 3.16743 20.7059 3.68 21.1994C4.17693 21.7082 4.78168 22.0998 5.45 22.3457C6.22734 22.6386 7.04915 22.797 7.88 22.8141C8.94 22.8739 9.28 22.8739 12 22.8739C14.72 22.8739 15.06 22.8739 16.12 22.8141C16.9508 22.797 17.7727 22.6386 18.55 22.3457C19.2196 22.1023 19.8248 21.7103 20.32 21.1994C20.8322 20.7037 21.2283 20.1012 21.48 19.4352C21.7652 18.6584 21.9206 17.8402 21.94 17.0132C21.94 15.9567 22 15.6178 22 12.9067C22 10.1956 22 9.85672 21.94 8.80019ZM20.14 16.8936C20.1327 17.5263 20.0178 18.1532 19.8 18.7475C19.6403 19.1813 19.3839 19.5732 19.05 19.8937C18.7256 20.2232 18.3332 20.4782 17.9 20.6413C17.3037 20.8583 16.6748 20.9729 16.04 20.9802C15.04 21.03 14.67 21.04 12.04 21.04C9.41 21.04 9.04 21.04 8.04 20.9802C7.38089 20.9925 6.72459 20.8913 6.1 20.6811C5.68578 20.5098 5.31136 20.2553 5 19.9336C4.66809 19.6134 4.41484 19.2211 4.26 18.7874C4.01586 18.1845 3.88044 17.5434 3.86 16.8936C3.86 15.8969 3.8 15.5281 3.8 12.9067C3.8 10.2853 3.8 9.91652 3.86 8.9198C3.86448 8.27298 3.98295 7.63198 4.21 7.02602C4.38605 6.60532 4.65627 6.2303 5 5.92963C5.30381 5.58692 5.67929 5.31474 6.1 5.13225C6.70955 4.91301 7.352 4.79842 8 4.79336C9 4.79336 9.37 4.73356 12 4.73356C14.63 4.73356 15 4.73356 16 4.79336C16.6348 4.80062 17.2637 4.91521 17.86 5.13225C18.3144 5.30035 18.7223 5.57364 19.05 5.92963C19.3777 6.2358 19.6338 6.61012 19.8 7.02602C20.0223 7.63296 20.1373 8.2737 20.14 8.9198C20.19 9.91652 20.2 10.2853 20.2 12.9067C20.2 15.5281 20.19 15.8969 20.14 16.8936ZM12 7.7935C10.9858 7.79547 9.99496 8.09703 9.15265 8.66007C8.31035 9.22311 7.65438 10.0224 7.26763 10.9569C6.88089 11.8913 6.78072 12.9191 6.97979 13.9103C7.17886 14.9015 7.66824 15.8117 8.38608 16.5258C9.10392 17.2399 10.018 17.7259 11.0129 17.9224C12.0077 18.1189 13.0387 18.017 13.9755 17.6297C14.9123 17.2424 15.7129 16.587 16.2761 15.7464C16.8394 14.9058 17.14 13.9176 17.14 12.9067C17.1413 12.234 17.0092 11.5677 16.7512 10.9461C16.4933 10.3245 16.1146 9.75985 15.6369 9.28465C15.1592 8.80945 14.5919 8.43308 13.9678 8.17717C13.3436 7.92126 12.6749 7.79087 12 7.7935ZM12 16.2258C11.3414 16.2258 10.6976 16.0311 10.15 15.6664C9.60234 15.3017 9.17552 14.7833 8.92348 14.1769C8.67144 13.5704 8.6055 12.903 8.73398 12.2592C8.86247 11.6153 9.17963 11.0239 9.64533 10.5597C10.111 10.0956 10.7044 9.77945 11.3503 9.65138C11.9963 9.52331 12.6659 9.58904 13.2743 9.84026C13.8828 10.0915 14.4029 10.5169 14.7688 11.0627C15.1347 11.6085 15.33 12.2502 15.33 12.9067C15.33 13.3426 15.2439 13.7742 15.0765 14.1769C14.9092 14.5796 14.6639 14.9454 14.3547 15.2537C14.0454 15.5619 13.6784 15.8063 13.2743 15.9731C12.8703 16.1399 12.4373 16.2258 12 16.2258Z" fill="white"/>
</svg>
