<svg width="24" height="23" viewBox="0 0 24 23" fill="none" xmlns="http://www.w3.org/2000/svg">
<path d="M23.1987 21.5937L17.9712 16.3662C23.4112 10.0868 18.8371 0.0568238 10.454 0.0886988C7.83372 0.0915084 5.32147 1.1333 3.46815 2.98563C1.61482 4.83796 0.571677 7.34965 0.567459 9.96995C0.535584 18.3584 10.5656 22.9324 16.845 17.4924L22.0937 22.6987C22.247 22.8008 22.4309 22.8467 22.6142 22.8285C22.7975 22.8103 22.9688 22.7292 23.099 22.599C23.2292 22.4688 23.3103 22.2974 23.3285 22.1142C23.3467 21.9309 23.3008 21.747 23.1987 21.5937ZM2.16121 9.9487C2.16402 7.75066 3.0388 5.64353 4.59355 4.08978C6.14829 2.53603 8.25598 1.6626 10.454 1.6612C21.4456 2.11807 21.4456 17.7846 10.454 18.2415C8.25506 18.2401 6.14657 17.3659 4.59167 15.811C3.03677 14.2561 2.16262 12.1477 2.16121 9.9487Z" fill="#000"/>
</svg>
