<svg width="24" height="25" viewBox="0 0 24 25" fill="none" xmlns="http://www.w3.org/2000/svg">
<path d="M19.2008 11.751V8.92028C17.8708 8.92028 16.8558 8.56645 16.2008 7.87871C15.5285 7.09381 15.1519 6.09983 15.1358 5.06794V4.86362L12.4508 4.79883C12.4508 4.79883 12.4508 4.91345 12.4508 5.06794V16.296C12.3587 16.7977 12.1144 17.2591 11.7509 17.6179C11.3873 17.9768 10.9221 18.2158 10.418 18.3028C9.91381 18.3898 9.39503 18.3204 8.93166 18.1042C8.46828 17.888 8.08262 17.5353 7.82674 17.0937C7.57086 16.6521 7.45707 16.1429 7.50075 15.6348C7.54443 15.1267 7.74346 14.6441 8.07098 14.2524C8.3985 13.8606 8.83874 13.5784 9.33226 13.4439C9.82579 13.3094 10.3488 13.3291 10.8308 13.5002V10.7592C10.5498 10.7133 10.2655 10.69 9.98078 10.6895C8.95628 10.6895 7.95478 10.9923 7.10293 11.5596C6.25108 12.1269 5.58715 12.9333 5.19509 13.8767C4.80303 14.8201 4.70044 15.8582 4.90032 16.8598C5.10019 17.8613 5.59353 18.7813 6.31797 19.5033C7.04241 20.2254 7.96539 20.7171 8.97022 20.9163C9.97504 21.1155 11.0166 21.0133 11.9631 20.6225C12.9096 20.2317 13.7186 19.57 14.2878 18.7209C14.857 17.8719 15.1608 16.8737 15.1608 15.8525C15.1602 15.6409 15.1469 15.4296 15.1208 15.2196V10.6596C16.3417 11.4195 17.7622 11.7995 19.2008 11.751Z" fill="white"/>
</svg>
