<svg width="20" height="20" viewBox="0 0 20 20" fill="none" xmlns="http://www.w3.org/2000/svg">
<path d="M11.0957 23.157C18.3703 23.157 24.2676 17.2597 24.2676 9.98511C24.2676 2.71048 18.3703 -3.18677 11.0957 -3.18677C3.82108 -3.18677 -2.07617 2.71048 -2.07617 9.98511C-2.07617 17.2597 3.82108 23.157 11.0957 23.157Z" fill="#2AB540"/>
<path d="M1.18148 9.59175C1.18089 11.0863 1.57137 12.5455 2.31397 13.8316L1.11035 18.2261L5.60781 17.0467C6.84685 17.7226 8.2419 18.0785 9.66183 18.0791H9.66534C14.3408 18.0791 18.1469 14.2742 18.1489 9.59819C18.1498 7.33204 17.2679 5.20113 15.6664 3.59826C14.0647 1.99539 11.9347 1.11199 9.66534 1.11111C4.98903 1.11111 1.18353 4.91544 1.18148 9.59175ZM3.85976 13.6101L3.69175 13.3434C2.98573 12.2212 2.61312 10.9239 2.6137 9.59204C2.61516 5.70546 5.77817 2.54334 9.66768 2.54334C11.5513 2.54421 13.3213 3.27833 14.6528 4.61044C15.984 5.94285 16.7167 7.71403 16.7164 9.59731C16.7146 13.4842 13.5516 16.6466 9.66504 16.6466H9.66241C8.39703 16.6457 7.15595 16.3062 6.07351 15.664L5.81593 15.5112L3.14702 16.2111L3.85976 13.6101Z" fill="white"/>
<path d="M7.54512 6.04587C7.38618 5.69286 7.21934 5.68584 7.06801 5.67969C6.94448 5.67442 6.80311 5.67472 6.66173 5.67472C6.52035 5.67472 6.29057 5.7277 6.09651 5.93991C5.90215 6.15212 5.35449 6.66495 5.35449 7.70757C5.35449 8.75049 6.11407 9.75829 6.22003 9.89996C6.32599 10.0413 7.6865 12.2498 9.84083 13.0996C11.6316 13.8056 11.9958 13.6654 12.3845 13.6299C12.7732 13.5945 13.6387 13.1174 13.8152 12.6224C13.992 12.1275 13.992 11.7033 13.939 11.6146C13.8861 11.5262 13.7447 11.4733 13.5328 11.3673C13.3208 11.2613 12.2785 10.7485 12.0844 10.6777C11.8901 10.6071 11.7487 10.5717 11.6073 10.7839C11.466 10.9959 11.06 11.4733 10.9364 11.6146C10.8129 11.7563 10.6891 11.7739 10.4772 11.6679C10.2653 11.5617 9.58237 11.338 8.77245 10.6159C8.14225 10.0539 7.71694 9.36021 7.59313 9.14799C7.4696 8.93607 7.57995 8.82133 7.68621 8.71566C7.78134 8.62083 7.89813 8.46803 8.00438 8.34451C8.11005 8.22069 8.14547 8.1323 8.21601 7.99092C8.28684 7.84954 8.25143 7.72572 8.19845 7.61947C8.14547 7.51322 7.73363 6.46503 7.54512 6.04587Z" fill="white"/>
</svg>
