<svg width="20" height="21" viewBox="0 0 20 21" fill="none" xmlns="http://www.w3.org/2000/svg">
<path d="M1.18148 10.4999C1.18089 11.9945 1.57137 13.4536 2.31397 14.7398L1.11035 19.1342L5.60781 17.9549C6.84685 18.6308 8.2419 18.9867 9.66183 18.9873H9.66534C14.3408 18.9873 18.1469 15.1824 18.1489 10.5064C18.1498 8.24022 17.2679 6.1093 15.6664 4.50643C14.0647 2.90356 11.9347 2.02017 9.66534 2.01929C4.98903 2.01929 1.18353 5.82362 1.18148 10.4999ZM3.85976 14.5182L3.69175 14.2516C2.98573 13.1293 2.61312 11.832 2.6137 10.5002C2.61516 6.61364 5.77817 3.45151 9.66768 3.45151C11.5513 3.45239 13.3213 4.1865 14.6528 5.51861C15.984 6.85102 16.7167 8.6222 16.7164 10.5055C16.7146 14.3924 13.5516 17.5548 9.66504 17.5548H9.66241C8.39703 17.5539 7.15595 17.2144 6.07351 16.5722L5.81593 16.4194L3.14702 17.1192L3.85976 14.5182Z" fill="white"/>
<path d="M7.54512 6.95416C7.38618 6.60116 7.21934 6.59413 7.06801 6.58799C6.94448 6.58272 6.80311 6.58301 6.66173 6.58301C6.52035 6.58301 6.29057 6.63599 6.09651 6.8482C5.90215 7.06042 5.35449 7.57324 5.35449 8.61587C5.35449 9.65879 6.11407 10.6666 6.22003 10.8083C6.32599 10.9496 7.6865 13.1581 9.84083 14.0079C11.6316 14.7139 11.9958 14.5737 12.3845 14.5382C12.7732 14.5028 13.6387 14.0257 13.8152 13.5307C13.992 13.0358 13.992 12.6116 13.939 12.5229C13.8861 12.4345 13.7447 12.3816 13.5328 12.2756C13.3208 12.1696 12.2785 11.6568 12.0844 11.586C11.8901 11.5154 11.7487 11.48 11.6073 11.6922C11.466 11.9042 11.06 12.3816 10.9364 12.5229C10.8129 12.6646 10.6891 12.6822 10.4772 12.5762C10.2653 12.47 9.58237 12.2463 8.77245 11.5242C8.14225 10.9622 7.71694 10.2685 7.59313 10.0563C7.4696 9.84437 7.57995 9.72962 7.68621 9.62396C7.78134 9.52912 7.89813 9.37633 8.00438 9.2528C8.11005 9.12899 8.14547 9.04059 8.21601 8.89921C8.28684 8.75783 8.25143 8.63402 8.19845 8.52776C8.14547 8.42151 7.73363 7.37332 7.54512 6.95416Z" fill="white"/>
</svg>
